HIERARCHY
ROOT Hips
{
	OFFSET 0.00000 0.00000 0.00000
	CHANNELS 6 Xposition Yposition Zposition Zrotation Yrotation Xrotation 
	JOINT LHipJoint
	{
		OFFSET 0 0 0
		CHANNELS 3 Zrotation Yrotation Xrotation
		JOINT LeftHip
		{
			OFFSET 1.62329 -1.80800 0.67318
			CHANNELS 3 Zrotation Yrotation Xrotation
			JOINT LeftKnee
			{
				OFFSET 2.57139 -7.06484 0.00000
				CHANNELS 3 Zrotation Yrotation Xrotation
				JOINT LeftAnkle
				{
					OFFSET 2.52017 -6.92413 0.00000
					CHANNELS 3 Zrotation Yrotation Xrotation
					JOINT LeftToe
					{
						OFFSET 0.23295 -0.64001 2.10214
						CHANNELS 3 Zrotation Yrotation Xrotation
						End Site
						{
							OFFSET 0.00000 -0.00000 1.10139
						}
					}
				}
			}
		}
	}
	JOINT RHipJoint
	{
		OFFSET 0 0 0
		CHANNELS 3 Zrotation Yrotation Xrotation
		JOINT RightHip
		{
			OFFSET -1.48061 -1.80800 0.67318
			CHANNELS 3 Zrotation Yrotation Xrotation
			JOINT RightKnee
			{
				OFFSET -2.63258 -7.23296 0.00000
				CHANNELS 3 Zrotation Yrotation Xrotation
				JOINT RightAnkle
				{
					OFFSET -2.54779 -7.00000 0.00000
					CHANNELS 3 Zrotation Yrotation Xrotation
					JOINT RightToe
					{
						OFFSET -0.23067 -0.63376 2.12161
						CHANNELS 3 Zrotation Yrotation Xrotation
						End Site
						{
							OFFSET -0.00000 -0.00000 1.11000
						}
					}
				}
			}
		}
	}
	JOINT lowerback
	{
		OFFSET 0 0 0
		CHANNELS 3 Zrotation Yrotation Xrotation
		JOINT Chest
		{
			OFFSET -0.02108 2.07573 -0.16981
			CHANNELS 3 Zrotation Yrotation Xrotation
			JOINT Chest2
			{
				OFFSET 0.05070 2.08439 -0.03141
				CHANNELS 3 Zrotation Yrotation Xrotation
				JOINT lowerneck
				{
					OFFSET 0 0 0
					CHANNELS 3 Zrotation Yrotation Xrotation
					JOINT Neck
					{
						OFFSET -0.10731 1.60408 0.31370
						CHANNELS 3 Zrotation Yrotation Xrotation
						JOINT Head
						{
							OFFSET 0.08411 1.65679 -0.30822
							CHANNELS 3 Zrotation Yrotation Xrotation
							End Site
							{
								OFFSET 0.03911 1.69149 -0.14146
							}
						}
					}
				}
				JOINT LeftCollar
				{
					OFFSET 0 0 0
					CHANNELS 3 Zrotation Yrotation Xrotation
					JOINT LeftShoulder
					{
						OFFSET 3.52315 0.73219 -0.54694
CHANNELS 3 Zrotation Xrotation Yrotation
						JOINT LeftElbow
						{
OFFSET 0 -5.324620 -0.000000
CHANNELS 3 Zrotation Xrotation Yrotation
							JOINT LeftWrist
							{
OFFSET 0 -3.484020 -0.000000
CHANNELS 3 Zrotation Xrotation Yrotation
								JOINT lhand
								{
									OFFSET 0 0 0
CHANNELS 3 Zrotation Xrotation Yrotation
									JOINT LFingers
									{
OFFSET 0 -0.572480 -0.000000
CHANNELS 3 Zrotation Xrotation Yrotation
										End Site
										{
OFFSET 0 -0.461540 -0.000000
										}
									}
								}
								JOINT LThumb
								{
OFFSET 0 0.000000 0.000000
CHANNELS 3 Zrotation Xrotation Yrotation
									End Site
									{
OFFSET 0 -0.468590 0.468590
									}
								}
							}
						}
					}
				}
				JOINT RightCollar
				{
					OFFSET 0 0 0
					CHANNELS 3 Zrotation Yrotation Xrotation
					JOINT RightShoulder
					{
						OFFSET -3.41766 0.93592 -0.10019
CHANNELS 3 Zrotation Xrotation Yrotation
						JOINT RightElbow
						{
OFFSET 0 -5.335890 -0.000000
CHANNELS 3 Zrotation Xrotation Yrotation
							JOINT RightWrist
							{
OFFSET 0 -3.641340 -0.000000
CHANNELS 3 Zrotation Xrotation Yrotation
								JOINT rhand
								{
									OFFSET 0 0 0
CHANNELS 3 Zrotation Xrotation Yrotation
									JOINT RFingers
									{
OFFSET 0 -0.734810 -0.000000
CHANNELS 3 Zrotation Xrotation Yrotation
										End Site
										{
OFFSET 0 -0.592420 -0.000000
										}
									}
								}
								JOINT RThumb
								{
OFFSET 0 0.000000 0.000000
CHANNELS 3 Zrotation Xrotation Yrotation
									End Site
									{
OFFSET 0 -0.601470 0.601470
									}
								}
							}
						}
					}
				}
			}
		}
	}
}
MOTION
Frames: 5
Frame Time: 0.008333333333333333
-4.938500 17.930900 -1.360900 2.323000 8.164300 11.034600 0.000000 0.000000 0.000000 -18.293300 -9.036700 -13.422500 1.233700 7.043800 19.845200 0.232000 6.348600 -13.582400 1.204900 -6.964200 -19.609300 0.000000 0.000000 0.000000 16.452000 6.542500 -18.748000 -2.857000 -10.459800 30.478900 -1.594900 -1.085900 -24.289600 -0.085500 -1.886200 5.191200 -1.626600 -2.073300 2.978400 3.895200 -2.781400 1.151000 5.014000 -1.408000 -0.212900 -13.759300 -8.232900 -13.155900 2.981400 -9.074600 26.158300 2.080300 -5.098300 11.536600 0.000000 -0.000000 0.000000 1.803700 -2.273200 -33.095200 23.921100 -35.080800 7.661200 0.962500 4.113400 -33.758300 0.000000 0.000000 0.000000 -7.125000 0.000000 0.000000 -36.280600 59.888900 14.303200 0.000000 -0.000000 0.000000 -12.917400 -9.175900 26.064400 -20.460500 -31.193200 -5.768000 -19.212300 8.551400 2.232000 0.000000 0.000000 0.000000 7.125000 0.000000 -0.000000 5.947700 32.305500 1.857100
-4.957208 17.928724 -1.388895 2.463510 9.140634 11.590858 0.000000 0.000000 0.000000 -18.166175 -9.455864 -14.271138 1.249356 7.086617 19.972247 0.242121 5.748373 -13.165839 1.220058 -7.006186 -19.733738 0.000000 0.000000 0.000000 16.355832 6.377868 -19.452469 -2.861558 -10.467499 30.504277 -1.621472 -1.291597 -24.566969 -0.110495 -2.143189 5.901562 -1.255294 -1.742611 3.121367 3.890975 -2.328960 1.239003 4.791186 -1.179375 -0.262712 -12.950554 -6.943702 -14.211589 1.743623 -6.925119 29.181030 1.790721 -4.256446 12.656140 0.000000 0.000000 0.000000 1.904344 -2.835882 -34.754703 24.584946 -35.776557 8.046018 1.983561 4.530134 -33.472081 0.000000 0.000000 0.000000 -7.125000 0.000000 0.000000 -34.996125 59.895975 13.723295 0.000000 0.000000 0.000000 -13.564899 -9.993010 26.177673 -21.144009 -31.995955 -6.126101 -18.956945 8.301707 3.098931 0.000000 0.000000 0.000000 7.125000 0.000000 0.000000 6.227545 33.210091 1.808726
-4.984211 17.931937 -1.411979 2.694261 10.186977 12.155842 0.000000 0.000000 0.000000 -18.113247 -10.044606 -14.902144 1.230905 7.036099 19.822244 0.258142 5.298147 -13.009792 1.051622 -6.520766 -18.303118 0.000000 0.000000 0.000000 16.210536 6.731116 -19.949710 -2.885132 -10.506791 30.633989 -1.705233 -1.974223 -25.453985 -0.116780 -2.202536 6.065732 -1.142405 -1.571875 3.109250 3.847253 -2.104695 1.546494 4.668989 -1.074324 0.033596 -11.960941 -5.786691 -14.994305 0.508603 -4.986907 30.999502 1.446782 -3.489149 13.337669 0.000000 0.000000 0.000000 2.096526 -3.675264 -35.666474 25.349416 -36.558984 8.497157 1.781916 4.442299 -33.282590 0.000000 0.000000 0.000000 -7.125000 0.000000 0.000000 -35.001569 59.694701 13.554479 0.000000 0.000000 0.000000 -13.922185 -11.487221 26.405955 -21.533316 -32.445626 -6.333663 -19.173447 8.093323 2.856895 0.000000 0.000000 0.000000 7.125000 0.000000 0.000000 6.031134 32.962227 1.787156
-5.005061 17.929318 -1.417600 2.728158 11.059845 12.380818 0.000000 0.000000 0.000000 -17.939126 -10.253119 -15.323566 1.229813 7.032944 19.813034 0.246844 4.744920 -12.342848 1.383678 -7.442954 -21.034363 0.000000 0.000000 0.000000 16.315962 6.717695 -20.175394 -2.919406 -10.563520 30.821498 -1.775967 -2.193868 -26.050909 -0.156743 -2.549076 7.025922 -0.927136 -1.348868 3.224364 3.796497 -1.805691 1.813257 4.485209 -0.927951 0.208050 -11.567502 -5.229724 -15.577491 0.026302 -3.998002 32.467470 1.339359 -3.111020 14.004942 0.000000 0.000000 0.000000 2.284079 -3.687321 -36.595227 26.368285 -37.569789 9.111369 2.837298 4.500156 -32.903467 0.000000 0.000000 0.000000 -7.125000 0.000000 0.000000 -33.596257 59.627412 12.876348 0.000000 0.000000 0.000000 -14.087242 -12.684024 26.663633 -21.472265 -32.375430 -6.300874 -19.948337 8.247956 1.865203 0.000000 0.000000 0.000000 7.125000 0.000000 0.000000 5.330425 31.934524 1.709129
-5.029301 17.924415 -1.405136 2.772430 12.037235 12.506765 0.000000 0.000000 0.000000 -17.750793 -10.449560 -15.607031 1.245711 7.076629 19.942670 0.279309 3.920666 -12.212097 1.250550 -7.087997 -19.977142 0.000000 0.000000 0.000000 16.496381 6.342313 -20.320359 -2.943148 -10.602527 30.950724 -1.834593 -2.402537 -26.549761 -0.183817 -2.761395 7.615057 -0.854212 -1.126329 3.297548 3.721833 -1.509721 1.986301 4.357811 -0.781642 0.315808 -10.727762 -4.855428 -15.755037 -1.188511 -3.221254 33.152568 0.834781 -2.850442 14.253463 0.000000 0.000000 0.000000 2.469164 -4.030040 -37.338646 26.885687 -38.069913 9.428527 3.658423 4.367211 -31.920197 0.000000 0.000000 0.000000 -7.125000 0.000000 0.000000 -31.858053 58.994152 11.629775 0.000000 0.000000 0.000000 -14.109723 -13.645249 26.800137 -21.514564 -32.424101 -6.323571 -20.846817 7.529461 0.924677 0.000000 0.000000 0.000000 7.125000 0.000000 0.000000 4.553139 30.950930 1.567453
